<svg xmlns="http://www.w3.org/2000/svg" width="512" height="512" viewBox="0 0 96 96" fill="none">
  <rect width="96" height="96" rx="24" fill="#082635"></rect>
  <path d="M56 26 a8 8 0 0 1 6 8" stroke="#18C8DB" stroke-width="4" fill="none" stroke-linecap="round" opacity=".9"></path>
  <path d="M61 20 a15 15 0 0 1 10 13" stroke="#18C8DB" stroke-width="4" fill="none" stroke-linecap="round" opacity=".55"></path>
  <path d="M66 15 a22 22 0 0 1 13 18" stroke="#18C8DB" stroke-width="4" fill="none" stroke-linecap="round" opacity=".3"></path>
  <path d="M42 22 C31 22 23 30.5 23 41 C23 52 38 66 42 74 C46 66 61 52 61 41 C61 30.5 53 22 42 22 Z" fill="#18C8DB"></path>
  <circle cx="42" cy="40" r="7.5" fill="#082635"></circle>
</svg>